<svg version="1.1" id="_x32_" xmlns="http://www.w3.org/2000/svg" xmlns:xlink="http://www.w3.org/1999/xlink" x="0px" y="0px"
	 width="512px" height="512px" viewBox="0 0 512 512" style="enable-background:new 0 0 512 512;" xml:space="preserve">
<style type="text/css">
<![CDATA[
	.st0{fill:currentColor;}
]]>
</style>
<g>
	<path class="st0" d="M114.133,444.625c-18.859-7.969-34.969-21.344-46.328-38.156c-11.359-16.844-17.938-36.969-17.969-58.844
		c0-14.594,2.938-28.375,8.25-40.953c7.984-18.859,21.359-34.969,38.172-46.328c2.875-1.938,5.859-3.719,8.906-5.375h-7.5
		c-10.328,0-20.016-4.578-26.578-12.563c-4.172-5.047-6.734-11.063-7.563-17.406c-13.734,10.281-25.703,22.813-35.328,37.063
		C11.68,286.438,2.04,316.016,2.04,347.625c0,21.063,4.281,41.25,12.031,59.594c11.641,27.5,31.016,50.813,55.438,67.297
		c12.453,8.453,26.297,15.078,41.063,19.578c-2.094-5.375-3.281-11.219-3.281-17.313c0-11.594,4.172-22.219,11.078-30.5
		C116.93,445.75,115.524,445.219,114.133,444.625z"/>
	<path class="st0" d="M369.383,406.469c-1.5,0.188-3,0.344-4.516,0.453c-15.438,1.172-30.891-1.141-45.203-6.547
		c-4.703,14.031-11.297,27.453-19.719,39.891c-0.656,0.984-1.359,1.938-2.031,2.891c13.078,5.469,26.859,9.094,40.969,10.813
		c14.938,1.781,30.281,1.344,45.453-1.438c-4.313-3.813-8.047-8.438-10.828-13.875C368.196,428.344,367.04,417,369.383,406.469z"/>
	<path class="st0" d="M492.945,231.875c-9.641-18.719-22.688-34.719-37.984-47.438c-22.922-19.125-50.812-31-80.093-34.469
		c-2.609-0.313-5.234-0.563-7.875-0.719l-0.094-0.125l-26.781-37.031c-6.484-8.219-17.875-10.656-27.172-5.875l-35.375,18.203
		l-6.797-16.016c1.313-1.438,2.516-2.969,3.5-4.625c2.516-4.281,3.859-9.188,3.859-14.188c0-4.453-1.078-9-3.297-13.156
		l-9.516-17.844h0.016c-2.5-4.703-6.203-8.438-10.516-10.969c-4.297-2.531-9.188-3.875-14.203-3.875
		c-1.984,0-3.984,0.25-5.969,0.688l-15.797-14.75c0.031-0.563,0.047-1.125,0.047-1.688c0.016-3.625-0.703-7.328-2.188-10.844
		c-2.219-5.313-5.969-9.656-10.5-12.594C201.68,1.609,196.383,0,190.915,0c-3.641,0-7.344,0.719-10.844,2.203V2.188l-18.641,7.844
		c-5.328,2.234-9.656,5.969-12.594,10.5c-2.953,4.531-4.547,9.828-4.547,15.313c-0.016,3.625,0.703,7.313,2.188,10.844
		c0.719,1.734,1.672,3.313,2.688,4.844l-3.125,15.813c-4.328,1.375-8.203,3.75-11.313,6.844c-5.047,5-8.219,12-8.266,19.688
		l-0.125,20.203v0.094v0.078c-0.016,7.656,3.109,14.703,8.125,19.734c2.672,2.703,5.938,4.844,9.563,6.266l-0.203,13.25H104.54
		c-10.469,0-19.453,7.391-21.453,17.656l-6.875,45.172c-1.25,6.422,0.438,13.047,4.578,18.109
		c4.156,5.031,10.344,7.953,16.875,7.953h57.422c14.594,0,28.391,2.953,40.953,8.25c18.875,7.984,34.984,21.359,46.328,38.172
		c11.375,16.813,17.953,36.938,17.969,58.813c-0.016,14.594-2.938,28.375-8.266,40.969c-7.953,18.844-21.344,34.969-38.156,46.313
		c-10.672,7.219-22.703,12.5-35.641,15.406c-6.203-5.438-14.297-8.766-23.188-8.766c-19.453,0-35.219,15.781-35.219,35.234
		c0,19.469,15.766,35.219,35.219,35.219c11.438,0,21.578-5.469,28.016-13.938c10.969-2.031,21.563-5.188,31.563-9.438
		c27.5-11.625,50.828-31,67.328-55.406c16.5-24.391,26.156-53.969,26.141-85.594c0.016-21.063-4.266-41.25-12.047-59.578
		c-11.625-27.484-31-50.813-55.422-67.297c-2.172-1.5-4.406-2.875-6.672-4.25l-0.031-0.172l-6.859-45.172
		c-2.016-10.266-11-17.656-21.469-17.656h-41.672l0.188-13.063c3.75-1.406,7.141-3.563,9.906-6.328
		c5.031-4.984,8.219-12.016,8.25-19.672l0.125-20.281v-0.031v-0.031v-0.063c0-7.656-3.125-14.688-8.125-19.719
		c-2.281-2.313-5.016-4.203-8.031-5.594l1.063-5.344c1.625,0.281,3.281,0.453,4.938,0.453c3.625,0,7.328-0.703,10.844-2.203
		l18.641-7.828c3-1.266,5.641-3.047,7.938-5.109l7.859,7.328c-0.359,0.516-0.75,1-1.047,1.547
		c-2.531,4.281-3.875,9.188-3.875,14.188c0,4.469,1.063,8.984,3.297,13.156l9.5,17.844c2.5,4.703,6.219,8.438,10.516,10.969
		s9.188,3.875,14.219,3.875c0.844,0,1.703-0.078,2.578-0.156l6.891,16.234l-26.516,13.641c7,4.969,12.125,12.516,13.875,21.422
		l0.078,0.516l6.031,39.641c0.734,0.484,1.453,0.953,2.172,1.422c6.938,4.688,13.469,9.875,19.578,15.5l33.844-17.438
		c12.984-6.656,26.578-10.375,40.188-11.406c20.422-1.531,40.875,2.969,58.656,12.719c17.797,9.766,32.875,24.641,42.906,44.094
		c6.688,12.969,10.375,26.563,11.422,40.188c1.531,20.406-2.969,40.875-12.719,58.656c-6.203,11.313-14.469,21.5-24.64,30
		c-8-2-16.719-1.25-24.625,2.844c-17.313,8.906-24.109,30.125-15.188,47.422c8.891,17.297,30.141,24.109,47.437,15.203
		c10.156-5.25,16.672-14.75,18.531-25.219c8.813-6.813,16.766-14.469,23.734-22.844c19.125-22.906,30.984-50.813,34.484-80.078
		C512.383,290.719,507.43,260,492.945,231.875z M155.086,491.875c-8.328,0-15.078-6.75-15.078-15.094s6.75-15.094,15.078-15.094
		c8.344,0,15.094,6.75,15.094,15.094S163.43,491.875,155.086,491.875z M136.524,93.938l10.063,0.047
		c0.031-2.188,0.875-4.078,2.328-5.516s3.359-2.281,5.531-2.281h0.063c2.188,0,4.078,0.875,5.516,2.313
		c1.422,1.453,2.281,3.344,2.281,5.531v0.063l-0.125,20.219c-0.016,2.188-0.875,4.078-2.313,5.531
		c-1.453,1.406-3.359,2.281-5.547,2.281c-0.016,0-0.031,0-0.063,0c-2.188-0.031-4.078-0.875-5.516-2.313
		c-1.422-1.469-2.281-3.375-2.297-5.563L146.586,94L136.524,93.938z M168.43,202.594c0,8.344-6.75,15.094-15.094,15.094
		c-8.328,0-15.094-6.75-15.094-15.094c0-6.344,3.906-11.75,9.438-14v-16.188h11.328v16.188
		C164.54,190.844,168.43,196.25,168.43,202.594z M197.493,32.297c-0.844,1.297-2,2.297-3.547,2.953l-18.625,7.844
		c-1.031,0.406-2.031,0.609-3.047,0.609c-1.516,0.016-3.031-0.453-4.313-1.297s-2.281-2-2.938-3.531
		c-0.438-1-0.625-2.031-0.625-3.031c0-1.531,0.453-3.047,1.297-4.313c0.844-1.281,2-2.297,3.531-2.938l18.641-7.844
		c1.031-0.422,2.031-0.625,3.047-0.625c1.516,0,3.031,0.469,4.313,1.313c1.281,0.813,2.281,1.969,2.922,3.516
		c0.422,1.016,0.625,2.047,0.641,3.047C198.79,29.5,198.321,31.031,197.493,32.297z M256.899,93.594
		c-0.703,1.219-1.703,2.219-3.063,2.938c-1.203,0.641-2.438,0.922-3.672,0.938c-1.406,0-2.813-0.391-4.031-1.109
		c-1.203-0.703-2.219-1.719-2.938-3.063l-9.5-17.859c-0.656-1.203-0.922-2.438-0.938-3.688c0-1.391,0.391-2.797,1.109-4
		c0.703-1.219,1.719-2.219,3.063-2.938c1.219-0.656,2.438-0.938,3.688-0.938c1.391,0,2.797,0.375,4.016,1.094
		c1.188,0.719,2.203,1.719,2.922,3.063l0.016,0.031l9.5,17.844c0.641,1.188,0.922,2.438,0.938,3.688
		C258.008,90.969,257.633,92.375,256.899,93.594z M295.836,187.219c-7.422,3.813-16.516,0.906-20.328-6.5
		c-2.891-5.625-1.906-12.234,1.984-16.75l-7.422-14.406l10.078-5.188l7.406,14.406c5.953-0.547,11.891,2.469,14.797,8.109
		C306.165,174.313,303.243,183.406,295.836,187.219z M422.915,430.188c-7.406,3.813-16.516,0.906-20.328-6.5
		c-3.813-7.438-0.906-16.5,6.5-20.344c7.422-3.813,16.531-0.906,20.343,6.516C433.242,417.266,430.32,426.375,422.915,430.188z"/>
</g>
</svg>