<svg version="1.1" id="_x32_" xmlns="http://www.w3.org/2000/svg" xmlns:xlink="http://www.w3.org/1999/xlink" x="0px" y="0px"
	 viewBox="0 0 512 512" style="enable-background:new 0 0 512 512;" xml:space="preserve">
<style type="text/css">
	.st0{fill:currentColor;}
</style>
<g>
	<path class="st0" d="M464.932,115.542H344.856l4.5,15.339c2.509,8.568,0.822,17.948-4.517,25.102
		c-5.382,7.169-13.907,11.432-22.839,11.432H190c-8.932,0-17.466-4.27-22.813-11.424c-5.364-7.161-7.059-16.551-4.542-25.127
		l4.5-15.322H47.068C21.085,115.542,0,136.61,0,162.61v246.271c0,25.992,21.085,47.068,47.068,47.068h417.865
		c26,0,47.068-21.076,47.068-47.068V162.61C512,136.61,490.932,115.542,464.932,115.542z M123.254,197.144
		c25.966,0,47.035,21.06,47.035,47.034c0,25.975-21.068,47.026-47.035,47.026c-25.966,0-47.016-21.051-47.016-47.026
		C76.238,218.204,97.288,197.144,123.254,197.144z M123.254,378.661c-32.304,0-65.389-11.186-60.22-42.152
		c2.102-12.576,12.508-30.204,20.406-38.101c1.017-1.017,5.644-1.28,6.916-0.5c9.576,5.906,20.83,9.364,32.898,9.364
		c12.068,0,23.322-3.458,32.899-9.364c1.27-0.78,5.898-0.517,6.932,0.5c7.881,7.898,18.288,25.525,20.39,38.101
		C188.644,367.475,155.56,378.661,123.254,378.661z M366.424,363.238h-134.22v-27.001h134.22V363.238z M446.695,296.814H232.203v-27
		h214.492V296.814z M446.695,230.39H232.203v-27h214.492V230.39z"/>
	<path class="st0" d="M320.009,92.483c-1.398-4.755-5.754-8.009-10.704-8.009h-11.102c-6.169,0-11.161-4.992-11.161-11.152v-6.119
		c0-6.153-4.992-11.153-11.153-11.153h-39.771c-6.169,0-11.153,5-11.153,11.153v6.119c0,6.16-5,11.152-11.161,11.152h-11.11
		c-4.949,0-9.304,3.254-10.695,8.009l-12.695,43.28c-1,3.373-0.338,7.017,1.771,9.83c2.11,2.814,5.415,4.466,8.923,4.466H322
		c3.508,0,6.822-1.652,8.932-4.466c2.102-2.813,2.762-6.457,1.771-9.83L320.009,92.483z"/>
</g>
</svg>