<svg version="1.1" id="_x32_" xmlns="http://www.w3.org/2000/svg" xmlns:xlink="http://www.w3.org/1999/xlink" x="0px" y="0px"
	 viewBox="0 0 512 512" style="enable-background:new 0 0 512 512;" xml:space="preserve">
<style type="text/css">
	.st0{fill:currentColor;}
</style>
<g>
	<path class="st0" d="M490.295,80.35c-0.553-1.016-1.103-1.922-1.896-3.238c-6.707-10.926-14.648-21.004-23.602-29.957
		c-9.23-9.23-19.332-17.195-30.441-23.926c-0.955-0.574-1.836-1.105-2.814-1.636c-20.666-12.188-43.563-19.461-68.18-21.57
		l-26.625,26.754l-78.752,78.75L96.039,267.299l-10.482,10.543L0,363.482c1.77,21.062,7.551,41.242,17.188,59.973
		c1.824,3.707,3.838,7.316,6.16,11.031c6.547,10.848,14.564,21.043,23.83,30.312c9.297,9.293,19.492,17.312,30.303,23.828
		c3.756,2.34,7.478,4.426,11.062,6.187c18.574,9.543,38.74,15.316,59.942,17.16l0.074,0.004l85.561-85.566l10.48-10.547
		l161.92-161.797l78.75-78.82L512,148.561C509.961,124.162,502.656,101.213,490.295,80.35z M416.422,82.74
		c1.711-1.715,3.988-2.66,6.41-2.66c2.424,0,4.701,0.946,6.414,2.66c3.535,3.531,3.535,9.285,0,12.824
		c-1.715,1.711-3.994,2.656-6.418,2.656c-2.422,0-4.699-0.942-6.41-2.652C412.883,92.029,412.885,86.276,416.422,82.74z
		 M402.272,109.709c3.535,3.539,3.535,9.293,0,12.828c-1.713,1.715-3.99,2.656-6.412,2.656c-2.422,0-4.697-0.942-6.412-2.656
		c-3.533-3.535-3.533-9.289,0-12.828c1.715-1.711,3.99-2.652,6.412-2.652C398.281,107.057,400.558,107.998,402.272,109.709z
		 M379.426,74.201c1.711-1.715,3.988-2.656,6.41-2.656c2.424,0,4.701,0.942,6.414,2.656c3.533,3.531,3.533,9.289,0,12.824
		c-1.715,1.715-3.994,2.66-6.418,2.66c-2.424,0-4.699-0.945-6.41-2.656C375.887,83.494,375.889,77.74,379.426,74.201z
		 M375.305,136.682c3.535,3.535,3.535,9.293,0,12.824c-1.715,1.719-3.992,2.66-6.412,2.66c-2.422,0-4.701-0.941-6.414-2.66
		c-3.535-3.531-3.535-9.289,0-12.824c1.713-1.715,3.992-2.66,6.414-2.66C371.312,134.022,373.59,134.967,375.305,136.682z
		 M365.275,101.174c1.713,1.715,2.658,3.992,2.658,6.414c0,2.418-0.945,4.699-2.658,6.414c-1.713,1.715-3.99,2.652-6.412,2.652
		c-2.422,0-4.699-0.938-6.412-2.652c-3.535-3.539-3.535-9.293,0-12.828c1.713-1.715,3.99-2.66,6.412-2.66
		C361.285,98.514,363.562,99.459,365.275,101.174z M348.332,176.482c-1.713,1.711-3.99,2.656-6.414,2.656
		c-2.422,0-4.699-0.945-6.41-2.656c-1.715-1.715-2.656-3.992-2.656-6.414c0-2.422,0.941-4.703,2.656-6.41
		c1.713-1.715,3.992-2.66,6.418-2.66c2.42,0,4.698,0.942,6.41,2.656C351.869,167.19,351.867,172.944,348.332,176.482z M343.17,64.92
		c1.713-1.715,3.994-2.66,6.418-2.66c2.422,0,4.697,0.945,6.41,2.66c3.535,3.531,3.533,9.289-0.004,12.828
		c-1.713,1.711-3.99,2.652-6.412,2.652c-2.422,0-4.699-0.941-6.412-2.652c-1.713-1.715-2.658-3.992-2.656-6.414
		C340.514,68.908,341.457,66.631,343.17,64.92z M338.308,128.146c3.535,3.535,3.535,9.289,0,12.82
		c-1.715,1.715-3.99,2.66-6.412,2.66c-2.424,0-4.701-0.946-6.414-2.66c-3.535-3.531-3.535-9.285,0-12.82
		c1.713-1.715,3.99-2.66,6.414-2.66C334.318,125.486,336.594,126.432,338.308,128.146z M316.201,91.889
		c1.713-1.711,3.99-2.652,6.412-2.652c2.422,0,4.697,0.941,6.412,2.652c3.533,3.539,3.533,9.293,0,12.828
		c-1.715,1.715-3.99,2.656-6.412,2.656c-2.422,0-4.699-0.942-6.412-2.656C312.666,101.182,312.666,95.428,316.201,91.889z
		 M289.23,118.861c1.713-1.715,3.99-2.656,6.412-2.656c2.424,0,4.701,0.941,6.412,2.656c1.715,1.715,2.66,3.988,2.656,6.414
		c0,2.426-0.941,4.699-2.656,6.414c-1.713,1.715-3.992,2.66-6.418,2.66c-2.42,0-4.697-0.945-6.41-2.66
		C285.692,128.154,285.695,122.396,289.23,118.861z M118.885,289.221c1.713-1.715,3.99-2.66,6.412-2.66
		c2.422,0,4.699,0.945,6.412,2.66c3.535,3.535,3.535,9.285,0,12.824c-1.713,1.711-3.99,2.656-6.412,2.656
		c-2.422,0-4.699-0.945-6.412-2.656C115.35,298.506,115.35,292.756,118.885,289.221z M134.58,322.814c2.42,0,4.697,0.946,6.41,2.66
		c1.713,1.711,2.658,3.988,2.656,6.414c0,2.422-0.943,4.695-2.656,6.41c-1.713,1.715-3.994,2.656-6.416,2.656
		c-2.422,0-4.699-0.942-6.412-2.652c-3.535-3.539-3.533-9.293,0.004-12.828C129.879,323.76,132.158,322.814,134.58,322.814z
		 M64.942,355.99c-3.535-3.539-3.535-9.289,0-12.828c1.715-1.715,3.99-2.656,6.412-2.656c2.424,0,4.701,0.941,6.414,2.656
		c3.535,3.539,3.535,9.289,0,12.828c-1.713,1.715-3.99,2.66-6.414,2.66C68.932,358.65,66.656,357.705,64.942,355.99z
		 M74.225,392.244c-3.533-3.535-3.533-9.289,0-12.828c1.715-1.715,3.99-2.656,6.412-2.656c2.422,0,4.699,0.941,6.412,2.656
		c3.535,3.539,3.535,9.293,0,12.828c-1.713,1.711-3.99,2.656-6.412,2.656C78.215,394.9,75.94,393.955,74.225,392.244z
		 M95.586,429.24c-1.713,1.715-3.988,2.66-6.41,2.66c-2.424,0-4.699-0.945-6.414-2.66c-3.533-3.535-3.533-9.289,0-12.824
		c1.715-1.715,3.99-2.656,6.414-2.656c2.422,0,4.698,0.941,6.41,2.656C99.121,419.951,99.121,425.705,95.586,429.24z M91.91,329.018
		c-3.533-3.535-3.533-9.289,0-12.828c1.715-1.711,3.994-2.656,6.418-2.656c2.422,0,4.699,0.945,6.41,2.656
		c3.535,3.535,3.535,9.293-0.004,12.828c-1.711,1.715-3.988,2.656-6.41,2.656C95.9,331.674,93.623,330.732,91.91,329.018z
		 M98.539,358.858c0-2.422,0.941-4.699,2.656-6.414c1.713-1.711,3.992-2.656,6.418-2.656c2.422,0,4.697,0.945,6.41,2.656
		c3.535,3.535,3.531,9.289-0.004,12.828c-1.713,1.711-3.99,2.656-6.414,2.656c-2.422,0-4.699-0.945-6.41-2.656
		C99.48,363.561,98.535,361.279,98.539,358.858z M109.732,402.272c-1.713-1.715-2.658-3.992-2.656-6.414
		c0-2.422,0.944-4.703,2.656-6.41c1.713-1.715,3.994-2.66,6.418-2.66c2.422,0,4.697,0.941,6.41,2.656
		c3.535,3.535,3.533,9.289-0.004,12.828c-1.713,1.711-3.99,2.652-6.412,2.652C113.723,404.924,111.443,403.982,109.732,402.272z
		 M132.582,437.779c-1.713,1.715-3.988,2.656-6.41,2.656c-2.422,0-4.699-0.942-6.412-2.656c-3.535-3.539-3.535-9.293,0-12.824
		c1.713-1.715,3.99-2.66,6.412-2.66c2.422,0,4.697,0.946,6.41,2.66C136.117,428.486,136.117,434.24,132.582,437.779z
		 M136.699,375.299c-3.535-3.535-3.531-9.293,0.004-12.828c1.713-1.715,3.99-2.656,6.412-2.656c2.424,0,4.701,0.942,6.412,2.656
		c1.715,1.715,2.658,3.988,2.656,6.414c0,2.418-0.942,4.699-2.656,6.41c-1.713,1.719-3.992,2.664-6.418,2.664
		C140.688,377.959,138.412,377.014,136.699,375.299z M146.726,410.807c-3.535-3.531-3.535-9.285,0-12.824
		c1.715-1.711,3.996-2.656,6.418-2.656c2.422,0,4.699,0.937,6.412,2.652c3.535,3.539,3.533,9.293-0.004,12.828
		c-1.713,1.715-3.992,2.66-6.414,2.66C150.719,413.467,148.442,412.522,146.726,410.807z M163.674,335.498
		c1.713-1.711,3.988-2.652,6.412-2.652c2.422,0,4.697,0.942,6.41,2.652c3.535,3.539,3.535,9.293,0,12.828
		c-1.713,1.715-3.988,2.656-6.41,2.656c-2.424,0-4.699-0.941-6.412-2.656C160.139,344.791,160.139,339.037,163.674,335.498z
		 M168.834,447.061c-1.713,1.715-3.99,2.66-6.412,2.66c-2.422,0-4.699-0.945-6.412-2.66c-3.535-3.535-3.535-9.289,0-12.828
		c1.713-1.707,3.99-2.652,6.412-2.652c2.422,0,4.699,0.946,6.412,2.652C172.369,437.772,172.369,443.526,168.834,447.061z
		 M173.695,383.834c-3.535-3.531-3.531-9.289,0.004-12.824c1.713-1.715,3.99-2.656,6.412-2.656c2.424,0,4.701,0.941,6.412,2.656
		c1.715,1.711,2.66,3.988,2.656,6.41c0,2.426-0.941,4.703-2.656,6.414c-1.713,1.715-3.992,2.66-6.418,2.66
		C177.684,386.494,175.408,385.549,173.695,383.834z M195.803,420.092c-1.711,1.711-3.99,2.656-6.412,2.656
		c-2.422,0-4.699-0.945-6.41-2.656c-1.715-1.715-2.658-3.992-2.658-6.414c0-2.422,0.943-4.703,2.658-6.41
		c1.713-1.719,3.992-2.664,6.418-2.664c2.418,0,4.697,0.945,6.408,2.66C199.342,410.799,199.34,416.553,195.803,420.092z
		 M222.777,393.119c-1.715,1.711-3.992,2.656-6.412,2.656c-2.424,0-4.701-0.946-6.414-2.656c-3.535-3.535-3.535-9.293,0-12.828
		c1.713-1.715,3.99-2.66,6.414-2.66c2.42,0,4.697,0.946,6.412,2.66C226.312,383.826,226.312,389.584,222.777,393.119z
		 M370.492,253.209L253.221,370.49c-0.778,0.773-1.814,1.203-2.922,1.203c-1.107,0-2.146-0.43-2.922-1.203L141.51,264.619
		c-1.611-1.613-1.611-4.238,0-5.848L258.783,141.49c0.779-0.774,1.818-1.203,2.926-1.203c1.108,0,2.143,0.422,2.92,1.199
		l105.867,105.875c0.779,0.778,1.207,1.816,1.205,2.926C371.701,251.393,371.272,252.436,370.492,253.209z M371.016,186.506
		c-3.535-3.535-3.535-9.289,0-12.824c1.715-1.715,3.99-2.656,6.412-2.656c2.424,0,4.701,0.941,6.414,2.656
		c3.535,3.535,3.535,9.289,0,12.824c-1.713,1.715-3.99,2.66-6.414,2.66C375.006,189.166,372.73,188.221,371.016,186.506z
		 M393.123,222.76c-1.713,1.715-3.994,2.66-6.418,2.66c-2.422,0-4.697-0.945-6.41-2.656c-3.533-3.535-3.533-9.289,0.004-12.832
		c1.713-1.711,3.99-2.652,6.412-2.652c2.422,0,4.701,0.942,6.412,2.652C396.658,213.471,396.658,219.225,393.123,222.76z
		 M397.984,159.537c-3.533-3.539-3.533-9.289,0-12.828c1.715-1.711,3.99-2.656,6.414-2.656c2.422,0,4.697,0.945,6.41,2.656
		c3.535,3.539,3.535,9.289,0,12.828c-1.713,1.711-3.988,2.656-6.41,2.656C401.975,162.194,399.699,161.248,397.984,159.537z
		 M420.094,195.791c-1.715,1.711-3.99,2.656-6.414,2.656c-2.422,0-4.697-0.945-6.41-2.656c-1.715-1.715-2.66-3.992-2.66-6.414
		c0-2.422,0.946-4.7,2.66-6.414c1.713-1.711,3.988-2.656,6.41-2.656c2.424,0,4.699,0.945,6.414,2.656
		C423.627,186.498,423.627,192.252,420.094,195.791z M424.955,132.564c-3.535-3.535-3.533-9.293,0.004-12.828
		c1.713-1.715,3.99-2.656,6.412-2.656c2.422,0,4.699,0.942,6.412,2.656c3.535,3.535,3.535,9.289,0,12.828
		c-1.713,1.715-3.994,2.656-6.418,2.656C428.945,135.221,426.668,134.279,424.955,132.564z M447.062,168.818
		c-1.715,1.715-3.992,2.656-6.414,2.656c-2.42,0-4.699-0.942-6.412-2.656c-3.535-3.539-3.535-9.289,0-12.824
		c1.717-1.718,3.996-2.66,6.418-2.66c2.422,0,4.697,0.942,6.41,2.656s2.658,3.988,2.656,6.414
		C449.721,164.826,448.775,167.104,447.062,168.818z"/>
</g>
</svg>